{
    "scene": 0,
    "scenes": [
        {
            "nodes": [
                0
            ]
        }
    ],
    "asset": {
        "generator": "pygltflib@v1.16.2",
        "version": "2.0",
        "extras": {
          "price": 643.6630588234,
          "details": "Percement d'une ouverture pour porte-fenêtre en agglomérés béton. Non compris, linteau, tableaux, appuis ou seuil, échafaudage, enlèvement et évacuation des matériaux en décharge."
        }
      },
    "accessors": [
        {
            "componentType": 5125,
            "type": "SCALAR",
            "bufferView": 0,
            "count": 198,
            "max": [
                29
            ],
            "min": [
                0
            ]
        },
        {
            "componentType": 5126,
            "type": "VEC3",
            "byteOffset": 0,
            "bufferView": 1,
            "count": 30,
            "max": [
                2.0,
                1.25,
                0.125
            ],
            "min": [
                -2.0,
                -1.25,
                -0.125
            ]
        },
        {
            "componentType": 5126,
            "type": "VEC2",
            "byteOffset": 0,
            "bufferView": 2,
            "count": 30
        }
    ],
    "meshes": [
        {
            "name": "tmpabjj9p4y.stl",
            "primitives": [
                {
                    "attributes": {
                        "POSITION": 1,
                        "TEXCOORD_0": 2
                    },
                    "indices": 0,
                    "mode": 4,
                    "material": 0
                }
            ]
        }
    ],
    "nodes": [
        {
            "name": "world",
            "children": [
                1
            ]
        },
        {
            "name": "tmpabjj9p4y.stl",
            "mesh": 0,
            "scale": [1.5, 1.2, 1.0],
            "translation": [0.0, 0.0, 0.0]
        }
    ],
    "buffers": [
        {
            "uri": "gltf_buffer_0.bin",
            "byteLength": 792
        },
        {
            "uri": "gltf_buffer_1.bin",
            "byteLength": 360
        }
    ],
    "bufferViews": [
        {
            "buffer": 0,
            "byteOffset": 0,
            "byteLength": 792
        },
        {
            "buffer": 1,
            "byteOffset": 0,
            "byteLength": 360
        },
        {
            "buffer": 1,
            "byteOffset": 0,
            "byteLength": 240
        }
    ],
    "images": [
        {
            "uri": "textures/Cube_BaseColor.png"
        }
    ],
    "textures": [
        {
            "source": 0,
            "sampler": 0
        }
    ],
    "samplers": [
        {
            "magFilter": 9729,
            "minFilter": 9729,
            "wrapS": 10497,
            "wrapT": 10497
        }
    ],
    "materials": [
        {
            "pbrMetallicRoughness": {
                "baseColorFactor": [
                    1.0,
                    1.0,
                    1.0,
                    1.0
                ],
                "baseColorTexture": {
                    "index": 0
                }
            },
            "name": "Concrete"
        }
    ]
}
